<svg xmlns="http://www.w3.org/2000/svg" width="120.154" height="116.167" viewBox="0 0 120.154 116.167">
  <g id="brand_circle" transform="translate(-529.923 -1441.917)">
    <g id="Grupo_25748" data-name="Grupo 25748" transform="translate(521.917 1431.609)">
      <path id="Trazado_15745" data-name="Trazado 15745" d="M66.446,23.213a2.862,2.862,0,0,0,.706.175l-.342.874a6.089,6.089,0,0,1-.878-.256,2.6,2.6,0,0,1-1.75-2.365,5.005,5.005,0,0,1-.61-.195c-2.458-.962-3.331-3.439-2.211-6.3,1.147-2.929,3.444-4.09,5.9-3.128s3.356,3.374,2.21,6.3c-.894,2.281-2.511,3.5-4.351,3.457A2.012,2.012,0,0,0,66.446,23.213ZM63.9,20.61c1.9.743,3.613-.311,4.547-2.694s.39-4.32-1.511-5.064-3.615.309-4.549,2.694C61.476,17.877,62.012,19.871,63.9,20.61Z" transform="translate(22.852 0.595)" fill="#3e3e3d"/>
      <path id="Trazado_15746" data-name="Trazado 15746" d="M75.248,16.621,71.5,21.636A2.57,2.57,0,1,0,75.61,24.71l3.748-5.017.852.637-3.79,5.07a3.325,3.325,0,0,1-5.049.68,3.308,3.308,0,0,1-.753-5.017l3.79-5.071Z" transform="translate(26.704 2.457)" fill="#3e3e3d"/>
      <path id="Trazado_15747" data-name="Trazado 15747" d="M80.568,33.431l-.7.563L76.11,29.341l7.51-6.067,3.7,4.58-.7.563L83.58,24.652l-2.612,2.111,2.9,3.586-.7.564-2.9-3.586-2.8,2.264Z" transform="translate(29.435 5.604)" fill="#3e3e3d"/>
      <path id="Trazado_15748" data-name="Trazado 15748" d="M84.3,40.607l-.812.384-2.559-5.414,8.736-4.128,2.518,5.328-.813.384L89.3,32.782,86.26,34.217l1.971,4.171-.812.384L85.447,34.6l-3.261,1.54Z" transform="translate(31.516 9.138)" fill="#3e3e3d"/>
      <path id="Trazado_15749" data-name="Trazado 15749" d="M93.517,40.816l.235,1.256-6.429,5.752a8.758,8.758,0,0,1-.993.766l0,.026c.317-.086.649-.162,1.157-.256l7.182-1.338.175.937-9.5,1.769-.233-1.257,6.442-5.753a7.349,7.349,0,0,1,.991-.766l0-.027c-.315.087-.647.163-1.156.258l-7.2,1.341-.175-.937Z" transform="translate(32.854 13.186)" fill="#3e3e3d"/>
      <path id="Trazado_15750" data-name="Trazado 15750" d="M88.225,51.064l.076,1.068a2.553,2.553,0,0,0-2.6,2.615c-.086,1.249.4,2.36,1.657,2.448s1.7-.646,2.009-1.825l.382-1.406a2.528,2.528,0,0,1,2.744-2.2c1.6.11,2.587,1.448,2.446,3.456-.13,1.886-1.071,3.267-3.036,3.294l-.13-1.073a2.164,2.164,0,0,0,2.327-2.307c.09-1.3-.516-2.2-1.587-2.279-.964-.066-1.558.438-1.883,1.588l-.384,1.4c-.4,1.459-1.13,2.555-2.854,2.435-1.574-.109-2.714-1.373-2.556-3.641C85.008,52.233,86.423,51.075,88.225,51.064Z" transform="translate(33.202 17.615)" fill="#3e3e3d"/>
      <path id="Trazado_15751" data-name="Trazado 15751" d="M91.751,69.009l-.454.944-7.9-3.8-1.988,4.13L80.6,69.9l2.443-5.076Z" transform="translate(31.377 23.56)" fill="#3e3e3d"/>
      <path id="Trazado_15752" data-name="Trazado 15752" d="M83.993,73.481c2.43,1.994,2.824,4.534,1.149,6.574s-4.244,2.147-6.673.153c-2.408-1.976-2.823-4.536-1.147-6.575S81.618,71.53,83.993,73.481Zm-4.825,5.875c1.976,1.624,3.986,1.706,5.281.13s.822-3.532-1.153-5.154c-1.933-1.588-3.994-1.694-5.279-.129S77.192,77.733,79.168,79.356Z" transform="translate(29.52 26.689)" fill="#3e3e3d"/>
      <path id="Trazado_15753" data-name="Trazado 15753" d="M77.115,85.928l-1.992-2.7-3.711,2.733-.531-.722L74.592,82.5l-2.67-3.623.844-.622,5.726,7.774L73.75,89.522l-.531-.723Z" transform="translate(27.175 29.367)" fill="#3e3e3d"/>
      <path id="Trazado_15754" data-name="Trazado 15754" d="M69.051,84.707l-.918.554a2.553,2.553,0,0,0-3.51-1.123c-1.151.49-1.922,1.425-1.426,2.589s1.346,1.217,2.538.96l1.428-.3a2.526,2.526,0,0,1,3.2,1.447c.63,1.477-.115,2.962-1.968,3.751-1.739.742-3.4.53-4.315-1.209l.9-.6A2.165,2.165,0,0,0,68.093,91.8c1.2-.513,1.73-1.462,1.309-2.451-.378-.889-1.1-1.19-2.271-.957l-1.426.3c-1.482.306-2.79.153-3.467-1.436-.619-1.454-.009-3.043,2.082-3.934C66.547,82.371,68.221,83.108,69.051,84.707Z" transform="translate(23.339 31.374)" fill="#3e3e3d"/>
      <path id="Trazado_15755" data-name="Trazado 15755" d="M51.978,88.8l1.276-.08.095,1.52-1.275.08Z" transform="translate(19.005 33.891)" fill="#3e3e3d"/>
      <path id="Trazado_15756" data-name="Trazado 15756" d="M38.775,83.74a2.743,2.743,0,0,0-.719-.115l.269-.9a6.254,6.254,0,0,1,.9.183,2.6,2.6,0,0,1,1.939,2.211,4.859,4.859,0,0,1,.626.145c2.531.755,3.606,3.149,2.727,6.1-.9,3.013-3.091,4.362-5.621,3.608s-3.626-3.085-2.728-6.1c.7-2.347,2.213-3.7,4.047-3.807A2.008,2.008,0,0,0,38.775,83.74Zm2.756,2.385c-1.956-.583-3.576.61-4.308,3.062s-.029,4.338,1.928,4.922,3.578-.61,4.309-3.063C44.174,88.647,43.474,86.705,41.531,86.125Z" transform="translate(12.037 31.299)" fill="#3e3e3d"/>
      <path id="Trazado_15757" data-name="Trazado 15757" d="M30.95,90.61,34.267,85.3a2.568,2.568,0,1,0-4.35-2.718L26.6,87.892l-.9-.563,3.353-5.365a3.321,3.321,0,0,1,4.97-1.1A3.306,3.306,0,0,1,35.192,85.8l-3.353,5.365Z" transform="translate(7.648 30.204)" fill="#3e3e3d"/>
      <path id="Trazado_15758" data-name="Trazado 15758" d="M24.469,74.2l.65-.62,4.136,4.337-7,6.673-4.069-4.268.65-.62,3.346,3.509,2.435-2.322L21.432,77.55l.65-.62,3.185,3.341,2.612-2.491Z" transform="translate(4.4 27.347)" fill="#3e3e3d"/>
      <path id="Trazado_15759" data-name="Trazado 15759" d="M20.205,67.061l.778-.451,3,5.183-8.363,4.842-2.952-5.1.778-.45,2.426,4.193,2.909-1.684L16.471,69.6l.776-.45,2.312,3.993,3.122-1.807Z" transform="translate(2.016 24.334)" fill="#3e3e3d"/>
      <path id="Trazado_15760" data-name="Trazado 15760" d="M10.917,67.463l-.339-1.233L16.5,59.962a8.579,8.579,0,0,1,.924-.845l-.007-.027c-.308.113-.633.216-1.13.354L9.244,61.379l-.253-.918L18.3,57.9l.338,1.232-5.932,6.272a7.385,7.385,0,0,1-.925.846l.007.027c.308-.113.632-.216,1.13-.354l7.055-1.939.252.917Z" transform="translate(0.426 20.57)" fill="#3e3e3d"/>
      <path id="Trazado_15761" data-name="Trazado 15761" d="M15.063,56.29,14.9,55.231A2.556,2.556,0,0,0,17.26,52.4c-.019-1.252-.594-2.32-1.86-2.3s-1.636.788-1.846,1.991l-.264,1.434a2.531,2.531,0,0,1-2.549,2.425c-1.605.026-2.7-1.223-2.734-3.238-.032-1.892.789-3.35,2.747-3.545l.222,1.058a2.167,2.167,0,0,0-2.125,2.5c.021,1.308.7,2.154,1.779,2.137.965-.014,1.515-.569,1.74-1.743l.264-1.435c.276-1.489.912-2.642,2.641-2.671,1.578-.024,2.823,1.14,2.86,3.414C18.172,54.852,16.857,56.125,15.063,56.29Z" transform="translate(0 16.729)" fill="#3e3e3d"/>
      <path id="Trazado_15762" data-name="Trazado 15762" d="M10.364,38.176l.377-.977,8.176,3.138,1.641-4.279.838.322L19.38,41.636Z" transform="translate(1.019 11.129)" fill="#3e3e3d"/>
      <path id="Trazado_15763" data-name="Trazado 15763" d="M17.336,34.249c-2.589-1.782-3.2-4.281-1.7-6.456s4.05-2.5,6.64-.718c2.568,1.766,3.2,4.282,1.7,6.456S19.87,35.993,17.336,34.249Zm4.311-6.266c-2.105-1.451-4.116-1.363-5.273.319s-.52,3.589,1.587,5.04c2.064,1.419,4.125,1.351,5.275-.319S23.755,29.434,21.647,27.983Z" transform="translate(2.95 6.75)" fill="#3e3e3d"/>
      <path id="Trazado_15764" data-name="Trazado 15764" d="M22.536,21.83l2.213,2.532,3.475-3.038.591.676L25.34,25.038l2.966,3.393-.791.69-6.36-7.277,4.438-3.88.591.676Z" transform="translate(5.683 3.309)" fill="#3e3e3d"/>
      <path id="Trazado_15765" data-name="Trazado 15765" d="M35.084,13.629l-2.753,1.457,4.1,7.741-.937.5-4.1-7.74-2.753,1.455-.42-.793,6.442-3.407Z" transform="translate(8.738 1.093)" fill="#3e3e3d"/>
      <path id="Trazado_15766" data-name="Trazado 15766" d="M38.2,18.2l.987-.417A2.553,2.553,0,0,0,42.5,19.394c1.21-.321,2.105-1.136,1.782-2.36s-1.16-1.4-2.377-1.312l-1.455.092a2.529,2.529,0,0,1-2.966-1.889c-.412-1.553.536-2.916,2.482-3.434,1.829-.486,3.44-.04,4.1,1.812l-.972.47a2.167,2.167,0,0,0-2.937-1.458c-1.263.335-1.921,1.2-1.644,2.24.248.934.917,1.333,2.111,1.269l1.457-.09c1.51-.092,2.783.245,3.227,1.916.405,1.527-.424,3.015-2.621,3.6C40.341,20.869,38.788,19.9,38.2,18.2Z" transform="translate(12.698 0)" fill="#3e3e3d"/>
      <path id="Trazado_15767" data-name="Trazado 15767" d="M53.8,13.858l-1.276-.1.117-1.521,1.276.1Z" transform="translate(19.239 0.834)" fill="#3e3e3d"/>
    </g>
    <circle id="Elipse_81" data-name="Elipse 81" cx="4" cy="4" r="4" transform="translate(586 1496)" fill="#3e3e3d"/>
  </g>
</svg>
