<svg xmlns="http://www.w3.org/2000/svg" width="90" height="90" viewBox="0 0 90 90">
  <g id="btn_download" transform="translate(6868 -1747) rotate(90)">
    <g id="Elipse_64" data-name="Elipse 64" transform="translate(1747 6778)" fill="none" stroke="#fff" stroke-width="1">
      <circle cx="45" cy="45" r="45" stroke="none"/>
      <circle cx="45" cy="45" r="44.5" fill="none"/>
    </g>
    <path id="Trazado_15733" data-name="Trazado 15733" d="M644.528,634.147l-5.431,1.87c2.067,6,6.541,11.187,10.344,14.776l-28.115-.588v5.75l28.539-.548c-3.888,3.6-8.624,8.95-10.768,15.176l5.431,1.87a42.786,42.786,0,0,1,10.041-16.016,2.694,2.694,0,0,0,.757-1.885v-2.506a2.691,2.691,0,0,0-.757-1.884A42.786,42.786,0,0,1,644.528,634.147Z" transform="translate(1153.674 6169.7)" fill="#fff"/>
  </g>
</svg>
